<svg width="50" height="50" viewBox="0 0 50 50" fill="none" xmlns="http://www.w3.org/2000/svg">
<path d="M41.7953 38.9527C44.0393 36.2529 45.5999 33.0523 46.3453 29.6218C47.0907 26.1912 46.9989 22.6316 46.0776 19.244C45.1564 15.8565 43.4327 12.7406 41.0526 10.1601C38.6724 7.5795 35.7058 5.61017 32.4035 4.41866C29.1013 3.22714 25.5607 2.84849 22.0812 3.31474C18.6017 3.78099 15.2857 5.07843 12.4136 7.09728C9.54159 9.11614 7.19804 11.797 5.58124 14.9132C3.96443 18.0293 3.12193 21.489 3.12501 24.9996C3.12619 30.103 4.92461 35.043 8.2047 38.9527L8.17345 38.9793C8.28282 39.1106 8.40782 39.2231 8.52032 39.3527C8.66095 39.5137 8.81251 39.6652 8.95782 39.8215C9.39532 40.2965 9.84532 40.7527 10.3172 41.1809C10.4609 41.3121 10.6094 41.434 10.7547 41.559C11.2547 41.9902 11.7688 42.3996 12.3016 42.7809C12.3703 42.8277 12.4328 42.8887 12.5016 42.9371V42.9184C16.1611 45.4936 20.5267 46.8757 25.0016 46.8757C29.4764 46.8757 33.842 45.4936 37.5016 42.9184V42.9371C37.5703 42.8887 37.6313 42.8277 37.7016 42.7809C38.2328 42.3981 38.7484 41.9902 39.2484 41.559C39.3938 41.434 39.5422 41.3106 39.6859 41.1809C40.1578 40.7512 40.6078 40.2965 41.0453 39.8215C41.1906 39.6652 41.3406 39.5137 41.4828 39.3527C41.5938 39.2231 41.7203 39.1106 41.8297 38.9777L41.7953 38.9527ZM25 12.4996C26.3907 12.4996 27.7501 12.912 28.9064 13.6846C30.0626 14.4572 30.9639 15.5553 31.496 16.8401C32.0282 18.1249 32.1675 19.5387 31.8962 20.9026C31.6249 22.2665 30.9552 23.5194 29.9719 24.5027C28.9885 25.4861 27.7357 26.1557 26.3717 26.427C25.0078 26.6983 23.5941 26.5591 22.3093 26.0269C21.0245 25.4947 19.9263 24.5935 19.1537 23.4372C18.3811 22.2809 17.9688 20.9215 17.9688 19.5309C17.9688 17.6661 18.7096 15.8776 20.0282 14.559C21.3468 13.2404 23.1352 12.4996 25 12.4996ZM12.5109 38.9527C12.5381 36.9011 13.3718 34.9427 14.8318 33.5011C16.2918 32.0595 18.2607 31.2507 20.3125 31.2496H29.6875C31.7393 31.2507 33.7082 32.0595 35.1682 33.5011C36.6282 34.9427 37.462 36.9011 37.4891 38.9527C34.0623 42.0408 29.6129 43.7497 25 43.7497C20.3871 43.7497 15.9378 42.0408 12.5109 38.9527Z" fill="#F1F4F6"/>
</svg>
